M48
; DRILL file {KiCad 9.0.4} date 2025-10-08T09:39:03-0400
; FORMAT={-:-/ absolute / inch / decimal}
; #@! TF.CreationDate,2025-10-08T09:39:03-04:00
; #@! TF.GenerationSoftware,Kicad,Pcbnew,9.0.4
; #@! TF.FileFunction,Plated,1,4,PTH
FMAT,2
INCH
; #@! TA.AperFunction,Plated,PTH,ViaDrill
T1C0.0157
; #@! TA.AperFunction,Plated,PTH,ComponentDrill
T2C0.0295
; #@! TA.AperFunction,Plated,PTH,ComponentDrill
T3C0.0315
; #@! TA.AperFunction,Plated,PTH,ComponentDrill
T4C0.0354
; #@! TA.AperFunction,Plated,PTH,ComponentDrill
T5C0.0394
; #@! TA.AperFunction,Plated,PTH,ComponentDrill
T6C0.0433
; #@! TA.AperFunction,Plated,PTH,ComponentDrill
T7C0.0512
; #@! TA.AperFunction,Plated,PTH,ComponentDrill
T8C0.0591
; #@! TA.AperFunction,Plated,PTH,ComponentDrill
T9C0.1260
%
G90
G05
T1
X3.0496Y-5.037
X3.2996Y-5.112
X3.2996Y-5.162
X3.3746Y-4.687
X3.3746Y-5.312
X3.3996Y-4.587
X3.4496Y-4.887
X3.5461Y-4.037
X3.6Y-4.537
X3.6246Y-5.112
X3.6433Y-4.3933
X3.6496Y-4.4585
X3.7496Y-3.287
X3.7996Y-3.287
X3.8211Y-3.5655
X3.8496Y-3.137
X3.8996Y-4.237
X3.9496Y-2.937
X3.9996Y-3.812
X4.1496Y-3.387
X4.1996Y-2.312
X4.1996Y-4.537
X4.3496Y-4.812
X4.3996Y-3.337
X4.4Y-5.212
X4.4496Y-4.487
X4.45Y-5.5
X4.5746Y-5.137
X4.5996Y-2.262
X4.5996Y-4.537
X4.7746Y-2.912
X4.7746Y-3.687
X4.7746Y-4.237
X4.7996Y-4.812
X4.8246Y-3.587
X4.8246Y-4.237
X4.8246Y-4.437
X4.8446Y-4.687
X4.8746Y-4.237
X4.8746Y-4.562
X4.8746Y-5.162
X4.9746Y-3.587
X4.9746Y-4.812
X4.9746Y-4.987
X4.9781Y-4.5405
X5.0246Y-2.787
X5.0246Y-3.687
X5.0496Y-2.487
X5.0496Y-2.637
X5.0996Y-2.262
X5.0996Y-4.6905
X5.1996Y-2.412
X5.2933Y-3.8433
X5.295Y-4.04
X5.3246Y-4.937
X5.3996Y-4.937
X5.4496Y-4.9835
X5.4746Y-5.237
X5.4996Y-4.487
X5.55Y-4.67
X5.5996Y-4.987
X5.6496Y-4.662
X5.75Y-4.295
X5.7996Y-3.387
X5.8996Y-3.762
X6.0746Y-3.737
X6.0746Y-3.812
X6.1014Y-4.4252
X6.1496Y-4.612
X6.2496Y-4.587
X6.2746Y-2.737
X6.3246Y-5.162
X6.3996Y-3.462
X6.4246Y-3.087
X6.436Y-3.9921
X6.4496Y-2.587
X6.4746Y-3.862
X6.4996Y-4.512
T2
X3.975Y-2.275
X3.975Y-2.325
X3.975Y-2.375
X4.525Y-5.262
X4.525Y-5.312
X4.525Y-5.362
T3
X3.05Y-2.375
X3.05Y-2.775
X3.175Y-2.375
X3.175Y-2.675
X3.324Y-2.512
X3.3246Y-2.387
X3.424Y-2.512
X3.4996Y-5.237
X3.4996Y-5.537
X3.524Y-2.512
X3.5996Y-5.237
X3.5996Y-5.537
X3.624Y-2.512
X3.6488Y-2.787
X3.6488Y-2.887
X3.6488Y-2.987
X3.6488Y-3.087
X3.6488Y-3.187
X3.6488Y-3.287
X3.6488Y-3.387
X3.6488Y-3.487
X3.6488Y-3.587
X3.6488Y-3.687
X3.6488Y-3.787
X3.6488Y-3.887
X3.6488Y-3.987
X3.6488Y-4.087
X3.6488Y-4.187
X3.6488Y-4.287
X3.6996Y-5.237
X3.6996Y-5.537
X3.724Y-2.512
X3.7246Y-2.387
X3.7996Y-5.237
X3.7996Y-5.537
X3.824Y-2.512
X3.8996Y-5.237
X3.8996Y-5.537
X3.924Y-2.512
X3.9994Y-4.7376
X3.9994Y-5.0376
X3.9996Y-5.237
X3.9996Y-5.537
X4.0012Y-4.612
X4.024Y-2.512
X4.0994Y-4.7376
X4.0994Y-5.0376
X4.0996Y-5.237
X4.0996Y-5.537
X4.124Y-2.512
X4.1278Y-4.462
X4.198Y-4.612
X4.1994Y-4.7376
X4.1994Y-5.0376
X4.1996Y-5.237
X4.1996Y-5.537
X4.2488Y-2.787
X4.2488Y-2.887
X4.2488Y-2.987
X4.2488Y-3.087
X4.2488Y-3.187
X4.2488Y-3.287
X4.2488Y-3.387
X4.2488Y-3.487
X4.2488Y-3.587
X4.2488Y-3.687
X4.2488Y-3.787
X4.2488Y-3.887
X4.2488Y-3.987
X4.2488Y-4.087
X4.2488Y-4.187
X4.2488Y-4.287
X4.2994Y-4.7376
X4.2994Y-5.0376
X4.3246Y-4.462
X4.35Y-5.3016
X4.35Y-5.4984
X4.3528Y-2.337
X4.3994Y-4.7376
X4.3994Y-5.0376
X4.3996Y-2.8886
X4.3996Y-3.0854
X4.4994Y-4.7376
X4.4994Y-5.0376
X4.5496Y-2.337
X4.5496Y-2.487
X4.5496Y-2.587
X4.5496Y-2.687
X4.5496Y-2.787
X4.5496Y-2.887
X4.5496Y-2.987
X4.5496Y-3.087
X4.5496Y-3.187
X4.5496Y-3.287
X4.5496Y-3.387
X4.5496Y-3.487
X4.5496Y-3.587
X4.5496Y-3.687
X4.5496Y-3.787
X4.5496Y-3.887
X4.5496Y-3.987
X4.5496Y-4.087
X4.5496Y-4.187
X4.5496Y-4.287
X4.5496Y-4.387
X4.5994Y-4.7376
X4.5994Y-5.0376
X4.7531Y-2.312
X4.774Y-4.9868
X4.774Y-5.0868
X4.774Y-5.1868
X4.774Y-5.2868
X4.774Y-5.3868
X4.774Y-5.4868
X4.774Y-5.5868
X4.9012Y-4.762
X4.9461Y-2.312
X5.074Y-4.9868
X5.074Y-5.0868
X5.074Y-5.1868
X5.074Y-5.2868
X5.074Y-5.3868
X5.074Y-5.4868
X5.074Y-5.5868
X5.098Y-4.762
X5.1496Y-2.487
X5.1496Y-2.587
X5.1496Y-2.687
X5.1496Y-2.787
X5.1496Y-2.887
X5.1496Y-2.987
X5.1496Y-3.087
X5.1496Y-3.187
X5.1496Y-3.287
X5.1496Y-3.387
X5.1496Y-3.487
X5.1496Y-3.587
X5.1496Y-3.687
X5.1496Y-3.787
X5.1496Y-3.887
X5.1496Y-3.987
X5.1496Y-4.087
X5.1496Y-4.187
X5.1496Y-4.287
X5.1496Y-4.387
X5.1512Y-2.337
X5.1512Y-4.612
X5.348Y-2.337
X5.348Y-4.612
X5.3996Y-4.812
X5.3996Y-5.112
X5.4746Y-2.387
X5.4746Y-2.487
X5.4746Y-2.587
X5.4746Y-2.687
X5.4746Y-2.787
X5.4746Y-2.887
X5.4746Y-2.987
X5.4746Y-3.087
X5.4746Y-3.187
X5.4746Y-3.287
X5.4746Y-3.387
X5.4746Y-3.487
X5.4746Y-3.637
X5.4996Y-4.812
X5.4996Y-5.112
X5.55Y-3.988
X5.55Y-4.088
X5.55Y-4.188
X5.55Y-4.288
X5.55Y-4.388
X5.5996Y-4.812
X5.5996Y-5.112
X5.65Y-3.888
X5.65Y-3.988
X5.65Y-4.088
X5.65Y-4.188
X5.65Y-4.288
X5.65Y-4.388
X5.65Y-4.488
X5.6715Y-3.637
X5.6766Y-2.25
X5.6996Y-4.812
X5.6996Y-5.112
X5.75Y-3.888
X5.75Y-3.988
X5.75Y-4.388
X5.75Y-4.488
X5.7996Y-4.812
X5.7996Y-5.112
X5.85Y-3.888
X5.85Y-3.988
X5.85Y-4.388
X5.85Y-4.488
X5.8734Y-2.25
X5.8996Y-4.812
X5.8996Y-5.112
X5.95Y-3.888
X5.95Y-3.988
X5.95Y-4.088
X5.95Y-4.188
X5.95Y-4.288
X5.95Y-4.388
X5.95Y-4.488
X5.9996Y-4.812
X5.9996Y-5.112
X6.05Y-3.988
X6.05Y-4.088
X6.05Y-4.188
X6.05Y-4.288
X6.05Y-4.388
X6.0746Y-2.387
X6.0746Y-2.487
X6.0746Y-2.587
X6.0746Y-2.687
X6.0746Y-2.787
X6.0746Y-2.887
X6.0746Y-2.987
X6.0746Y-3.087
X6.0746Y-3.187
X6.0746Y-3.287
X6.0746Y-3.387
X6.0746Y-3.487
X6.0996Y-4.812
X6.0996Y-5.112
X6.2496Y-4.8886
X6.2496Y-5.0854
X6.2512Y-2.362
X6.2996Y-3.087
X6.2996Y-3.187
X6.2996Y-3.287
X6.2996Y-3.387
X6.2996Y-3.487
X6.2996Y-3.587
X6.2996Y-3.687
X6.2996Y-3.787
X6.2996Y-3.887
X6.2996Y-3.987
X6.3246Y-2.537
X6.3246Y-2.837
X6.4Y-4.4874
X6.4Y-4.5874
X6.4Y-4.6874
X6.4Y-4.7874
X6.448Y-2.362
X6.5278Y-4.912
X6.5996Y-3.087
X6.5996Y-3.187
X6.5996Y-3.287
X6.5996Y-3.387
X6.5996Y-3.487
X6.5996Y-3.587
X6.5996Y-3.687
X6.5996Y-3.787
X6.5996Y-3.887
X6.5996Y-3.987
X6.6246Y-2.537
X6.6246Y-2.837
X6.6246Y-4.1386
X6.6246Y-4.3354
X6.7Y-4.4874
X6.7Y-4.5874
X6.7Y-4.6874
X6.7Y-4.7874
X6.7246Y-4.912
T4
X3.4998Y-2.212
X3.5998Y-2.212
X6.2496Y-2.212
X6.3496Y-2.212
T5
X3.0996Y-2.987
X3.0996Y-3.087
X3.0996Y-3.187
X3.0996Y-3.287
X3.0996Y-3.387
X3.0996Y-3.487
X3.0996Y-3.587
X3.0996Y-3.687
X3.0996Y-3.787
X3.0996Y-3.887
X3.0996Y-3.987
X3.0996Y-4.087
X3.0996Y-4.187
X3.0996Y-4.287
X3.0996Y-4.387
X3.0996Y-4.487
X3.0996Y-4.587
X3.0996Y-4.687
X3.0996Y-4.787
X3.0996Y-4.887
X3.1996Y-2.987
X3.1996Y-3.087
X3.1996Y-3.187
X3.1996Y-3.287
X3.1996Y-3.387
X3.1996Y-3.487
X3.1996Y-3.587
X3.1996Y-3.687
X3.1996Y-3.787
X3.1996Y-3.887
X3.1996Y-3.987
X3.1996Y-4.087
X3.1996Y-4.187
X3.1996Y-4.287
X3.1996Y-4.387
X3.1996Y-4.487
X3.1996Y-4.587
X3.1996Y-4.687
X3.1996Y-4.787
X3.1996Y-4.887
X3.4996Y-5.687
X3.4996Y-5.787
X3.5996Y-5.687
X3.5996Y-5.787
X3.6246Y-4.787
X3.6246Y-4.887
X3.6246Y-4.987
X3.6996Y-5.687
X3.6996Y-5.787
X3.7246Y-4.787
X3.7246Y-4.887
X3.7246Y-4.987
X3.7996Y-5.687
X3.7996Y-5.787
X3.8996Y-5.687
X3.8996Y-5.787
X3.9996Y-5.687
X3.9996Y-5.787
X4.0996Y-5.687
X4.0996Y-5.787
X5.2246Y-5.387
X5.2246Y-5.487
X5.2246Y-5.587
X5.23Y-5.04
X5.23Y-5.14
X5.23Y-5.24
X5.4496Y-5.362
X5.5496Y-5.362
X5.6496Y-5.362
X5.8996Y-5.312
X5.9996Y-5.312
X6.0996Y-5.312
X6.1996Y-5.312
X6.2996Y-5.312
X6.3496Y-4.337
X6.3996Y-5.312
X6.4496Y-4.337
X6.5746Y-5.087
X6.5746Y-5.187
X6.5746Y-5.287
X6.5746Y-5.387
T6
X4.347Y-5.6364
X4.347Y-5.8136
X4.603Y-5.6364
X4.603Y-5.8136
T7
X5.4762Y-5.6423
X5.673Y-5.6423
T8
X6.3996Y-4.212
X6.3996Y-5.0187
T9
X3.1496Y-2.1654
X3.1496Y-5.7087
X6.6929Y-2.1654
X6.6929Y-5.7087
M30
