%TF.GenerationSoftware,KiCad,Pcbnew,9.0.4*%
%TF.CreationDate,2025-10-08T09:39:38-04:00*%
%TF.ProjectId,stplus,7374706c-7573-42e6-9b69-6361645f7063,rev?*%
%TF.SameCoordinates,Original*%
%TF.FileFunction,Legend,Bot*%
%TF.FilePolarity,Positive*%
%FSLAX46Y46*%
G04 Gerber Fmt 4.6, Leading zero omitted, Abs format (unit mm)*
G04 Created by KiCad (PCBNEW 9.0.4) date 2025-10-08 09:39:38*
%MOMM*%
%LPD*%
G01*
G04 APERTURE LIST*
%ADD10C,0.150000*%
%ADD11C,0.120000*%
G04 APERTURE END LIST*
D10*
X76825000Y-73965000D02*
X78475000Y-73965000D01*
X79075000Y-73965000D02*
X80725000Y-73965000D01*
X81325000Y-73965000D02*
X82975000Y-73965000D01*
X83175000Y-73965000D02*
X83175000Y-75615000D01*
X83175000Y-76215000D02*
X83175000Y-77865000D01*
X83175000Y-78465000D02*
X83175000Y-80115000D01*
X83175000Y-80715000D02*
X83175000Y-82365000D01*
X83175000Y-82965000D02*
X83175000Y-84615000D01*
X83175000Y-85215000D02*
X83175000Y-86865000D01*
X83175000Y-87465000D02*
X83175000Y-89115000D01*
X83175000Y-89715000D02*
X83175000Y-91365000D01*
X83175000Y-91965000D02*
X83175000Y-93615000D01*
X83175000Y-94215000D02*
X83175000Y-95865000D01*
X83175000Y-96465000D02*
X83175000Y-98115000D01*
X83175000Y-98715000D02*
X83175000Y-100000000D01*
X83175000Y-100000000D02*
X81525000Y-100000000D01*
X80925000Y-100000000D02*
X79275000Y-100000000D01*
X78675000Y-100000000D02*
X77025000Y-100000000D01*
X76825000Y-100000000D02*
X76825000Y-98350000D01*
X76825000Y-97750000D02*
X76825000Y-96100000D01*
X76825000Y-95500000D02*
X76825000Y-93850000D01*
X76825000Y-93250000D02*
X76825000Y-91600000D01*
X76825000Y-91000000D02*
X76825000Y-89350000D01*
X76825000Y-88750000D02*
X76825000Y-87100000D01*
X76825000Y-86500000D02*
X76825000Y-84850000D01*
X76825000Y-84250000D02*
X76825000Y-82600000D01*
X76825000Y-82000000D02*
X76825000Y-80350000D01*
X76825000Y-79750000D02*
X76825000Y-78100000D01*
X76825000Y-77500000D02*
X76825000Y-75850000D01*
X76825000Y-75250000D02*
X76825000Y-73965000D01*
X81044411Y-73199819D02*
X81615839Y-73199819D01*
X81330125Y-73199819D02*
X81330125Y-72199819D01*
X81330125Y-72199819D02*
X81425363Y-72342676D01*
X81425363Y-72342676D02*
X81520601Y-72437914D01*
X81520601Y-72437914D02*
X81615839Y-72485533D01*
X78599649Y-126508152D02*
X78599649Y-127174819D01*
X78837744Y-126127200D02*
X79075839Y-126841485D01*
X79075839Y-126841485D02*
X78456792Y-126841485D01*
X77885363Y-126174819D02*
X77790125Y-126174819D01*
X77790125Y-126174819D02*
X77694887Y-126222438D01*
X77694887Y-126222438D02*
X77647268Y-126270057D01*
X77647268Y-126270057D02*
X77599649Y-126365295D01*
X77599649Y-126365295D02*
X77552030Y-126555771D01*
X77552030Y-126555771D02*
X77552030Y-126793866D01*
X77552030Y-126793866D02*
X77599649Y-126984342D01*
X77599649Y-126984342D02*
X77647268Y-127079580D01*
X77647268Y-127079580D02*
X77694887Y-127127200D01*
X77694887Y-127127200D02*
X77790125Y-127174819D01*
X77790125Y-127174819D02*
X77885363Y-127174819D01*
X77885363Y-127174819D02*
X77980601Y-127127200D01*
X77980601Y-127127200D02*
X78028220Y-127079580D01*
X78028220Y-127079580D02*
X78075839Y-126984342D01*
X78075839Y-126984342D02*
X78123458Y-126793866D01*
X78123458Y-126793866D02*
X78123458Y-126555771D01*
X78123458Y-126555771D02*
X78075839Y-126365295D01*
X78075839Y-126365295D02*
X78028220Y-126270057D01*
X78028220Y-126270057D02*
X77980601Y-126222438D01*
X77980601Y-126222438D02*
X77885363Y-126174819D01*
X162673866Y-103511779D02*
X162673866Y-104273684D01*
X163054819Y-103892731D02*
X162292914Y-103892731D01*
X171214580Y-103448207D02*
X171262200Y-103400588D01*
X171262200Y-103400588D02*
X171309819Y-103257731D01*
X171309819Y-103257731D02*
X171309819Y-103162493D01*
X171309819Y-103162493D02*
X171262200Y-103019636D01*
X171262200Y-103019636D02*
X171166961Y-102924398D01*
X171166961Y-102924398D02*
X171071723Y-102876779D01*
X171071723Y-102876779D02*
X170881247Y-102829160D01*
X170881247Y-102829160D02*
X170738390Y-102829160D01*
X170738390Y-102829160D02*
X170547914Y-102876779D01*
X170547914Y-102876779D02*
X170452676Y-102924398D01*
X170452676Y-102924398D02*
X170357438Y-103019636D01*
X170357438Y-103019636D02*
X170309819Y-103162493D01*
X170309819Y-103162493D02*
X170309819Y-103257731D01*
X170309819Y-103257731D02*
X170357438Y-103400588D01*
X170357438Y-103400588D02*
X170405057Y-103448207D01*
X171309819Y-104448207D02*
X170833628Y-104114874D01*
X171309819Y-103876779D02*
X170309819Y-103876779D01*
X170309819Y-103876779D02*
X170309819Y-104257731D01*
X170309819Y-104257731D02*
X170357438Y-104352969D01*
X170357438Y-104352969D02*
X170405057Y-104400588D01*
X170405057Y-104400588D02*
X170500295Y-104448207D01*
X170500295Y-104448207D02*
X170643152Y-104448207D01*
X170643152Y-104448207D02*
X170738390Y-104400588D01*
X170738390Y-104400588D02*
X170786009Y-104352969D01*
X170786009Y-104352969D02*
X170833628Y-104257731D01*
X170833628Y-104257731D02*
X170833628Y-103876779D01*
X170405057Y-104829160D02*
X170357438Y-104876779D01*
X170357438Y-104876779D02*
X170309819Y-104972017D01*
X170309819Y-104972017D02*
X170309819Y-105210112D01*
X170309819Y-105210112D02*
X170357438Y-105305350D01*
X170357438Y-105305350D02*
X170405057Y-105352969D01*
X170405057Y-105352969D02*
X170500295Y-105400588D01*
X170500295Y-105400588D02*
X170595533Y-105400588D01*
X170595533Y-105400588D02*
X170738390Y-105352969D01*
X170738390Y-105352969D02*
X171309819Y-104781541D01*
X171309819Y-104781541D02*
X171309819Y-105400588D01*
X170309819Y-106019636D02*
X170309819Y-106114874D01*
X170309819Y-106114874D02*
X170357438Y-106210112D01*
X170357438Y-106210112D02*
X170405057Y-106257731D01*
X170405057Y-106257731D02*
X170500295Y-106305350D01*
X170500295Y-106305350D02*
X170690771Y-106352969D01*
X170690771Y-106352969D02*
X170928866Y-106352969D01*
X170928866Y-106352969D02*
X171119342Y-106305350D01*
X171119342Y-106305350D02*
X171214580Y-106257731D01*
X171214580Y-106257731D02*
X171262200Y-106210112D01*
X171262200Y-106210112D02*
X171309819Y-106114874D01*
X171309819Y-106114874D02*
X171309819Y-106019636D01*
X171309819Y-106019636D02*
X171262200Y-105924398D01*
X171262200Y-105924398D02*
X171214580Y-105876779D01*
X171214580Y-105876779D02*
X171119342Y-105829160D01*
X171119342Y-105829160D02*
X170928866Y-105781541D01*
X170928866Y-105781541D02*
X170690771Y-105781541D01*
X170690771Y-105781541D02*
X170500295Y-105829160D01*
X170500295Y-105829160D02*
X170405057Y-105876779D01*
X170405057Y-105876779D02*
X170357438Y-105924398D01*
X170357438Y-105924398D02*
X170309819Y-106019636D01*
X170309819Y-106686303D02*
X170309819Y-107305350D01*
X170309819Y-107305350D02*
X170690771Y-106972017D01*
X170690771Y-106972017D02*
X170690771Y-107114874D01*
X170690771Y-107114874D02*
X170738390Y-107210112D01*
X170738390Y-107210112D02*
X170786009Y-107257731D01*
X170786009Y-107257731D02*
X170881247Y-107305350D01*
X170881247Y-107305350D02*
X171119342Y-107305350D01*
X171119342Y-107305350D02*
X171214580Y-107257731D01*
X171214580Y-107257731D02*
X171262200Y-107210112D01*
X171262200Y-107210112D02*
X171309819Y-107114874D01*
X171309819Y-107114874D02*
X171309819Y-106829160D01*
X171309819Y-106829160D02*
X171262200Y-106733922D01*
X171262200Y-106733922D02*
X171214580Y-106686303D01*
X170405057Y-107686303D02*
X170357438Y-107733922D01*
X170357438Y-107733922D02*
X170309819Y-107829160D01*
X170309819Y-107829160D02*
X170309819Y-108067255D01*
X170309819Y-108067255D02*
X170357438Y-108162493D01*
X170357438Y-108162493D02*
X170405057Y-108210112D01*
X170405057Y-108210112D02*
X170500295Y-108257731D01*
X170500295Y-108257731D02*
X170595533Y-108257731D01*
X170595533Y-108257731D02*
X170738390Y-108210112D01*
X170738390Y-108210112D02*
X171309819Y-107638684D01*
X171309819Y-107638684D02*
X171309819Y-108257731D01*
X170309819Y-109352970D02*
X170309819Y-109972017D01*
X170309819Y-109972017D02*
X170690771Y-109638684D01*
X170690771Y-109638684D02*
X170690771Y-109781541D01*
X170690771Y-109781541D02*
X170738390Y-109876779D01*
X170738390Y-109876779D02*
X170786009Y-109924398D01*
X170786009Y-109924398D02*
X170881247Y-109972017D01*
X170881247Y-109972017D02*
X171119342Y-109972017D01*
X171119342Y-109972017D02*
X171214580Y-109924398D01*
X171214580Y-109924398D02*
X171262200Y-109876779D01*
X171262200Y-109876779D02*
X171309819Y-109781541D01*
X171309819Y-109781541D02*
X171309819Y-109495827D01*
X171309819Y-109495827D02*
X171262200Y-109400589D01*
X171262200Y-109400589D02*
X171214580Y-109352970D01*
X171214580Y-110400589D02*
X171262200Y-110448208D01*
X171262200Y-110448208D02*
X171309819Y-110400589D01*
X171309819Y-110400589D02*
X171262200Y-110352970D01*
X171262200Y-110352970D02*
X171214580Y-110400589D01*
X171214580Y-110400589D02*
X171309819Y-110400589D01*
X170309819Y-111067255D02*
X170309819Y-111162493D01*
X170309819Y-111162493D02*
X170357438Y-111257731D01*
X170357438Y-111257731D02*
X170405057Y-111305350D01*
X170405057Y-111305350D02*
X170500295Y-111352969D01*
X170500295Y-111352969D02*
X170690771Y-111400588D01*
X170690771Y-111400588D02*
X170928866Y-111400588D01*
X170928866Y-111400588D02*
X171119342Y-111352969D01*
X171119342Y-111352969D02*
X171214580Y-111305350D01*
X171214580Y-111305350D02*
X171262200Y-111257731D01*
X171262200Y-111257731D02*
X171309819Y-111162493D01*
X171309819Y-111162493D02*
X171309819Y-111067255D01*
X171309819Y-111067255D02*
X171262200Y-110972017D01*
X171262200Y-110972017D02*
X171214580Y-110924398D01*
X171214580Y-110924398D02*
X171119342Y-110876779D01*
X171119342Y-110876779D02*
X170928866Y-110829160D01*
X170928866Y-110829160D02*
X170690771Y-110829160D01*
X170690771Y-110829160D02*
X170500295Y-110876779D01*
X170500295Y-110876779D02*
X170405057Y-110924398D01*
X170405057Y-110924398D02*
X170357438Y-110972017D01*
X170357438Y-110972017D02*
X170309819Y-111067255D01*
X170309819Y-111686303D02*
X171309819Y-112019636D01*
X171309819Y-112019636D02*
X170309819Y-112352969D01*
X82298458Y-126174819D02*
X81679411Y-126174819D01*
X81679411Y-126174819D02*
X82012744Y-126555771D01*
X82012744Y-126555771D02*
X81869887Y-126555771D01*
X81869887Y-126555771D02*
X81774649Y-126603390D01*
X81774649Y-126603390D02*
X81727030Y-126651009D01*
X81727030Y-126651009D02*
X81679411Y-126746247D01*
X81679411Y-126746247D02*
X81679411Y-126984342D01*
X81679411Y-126984342D02*
X81727030Y-127079580D01*
X81727030Y-127079580D02*
X81774649Y-127127200D01*
X81774649Y-127127200D02*
X81869887Y-127174819D01*
X81869887Y-127174819D02*
X82155601Y-127174819D01*
X82155601Y-127174819D02*
X82250839Y-127127200D01*
X82250839Y-127127200D02*
X82298458Y-127079580D01*
X81203220Y-127174819D02*
X81012744Y-127174819D01*
X81012744Y-127174819D02*
X80917506Y-127127200D01*
X80917506Y-127127200D02*
X80869887Y-127079580D01*
X80869887Y-127079580D02*
X80774649Y-126936723D01*
X80774649Y-126936723D02*
X80727030Y-126746247D01*
X80727030Y-126746247D02*
X80727030Y-126365295D01*
X80727030Y-126365295D02*
X80774649Y-126270057D01*
X80774649Y-126270057D02*
X80822268Y-126222438D01*
X80822268Y-126222438D02*
X80917506Y-126174819D01*
X80917506Y-126174819D02*
X81107982Y-126174819D01*
X81107982Y-126174819D02*
X81203220Y-126222438D01*
X81203220Y-126222438D02*
X81250839Y-126270057D01*
X81250839Y-126270057D02*
X81298458Y-126365295D01*
X81298458Y-126365295D02*
X81298458Y-126603390D01*
X81298458Y-126603390D02*
X81250839Y-126698628D01*
X81250839Y-126698628D02*
X81203220Y-126746247D01*
X81203220Y-126746247D02*
X81107982Y-126793866D01*
X81107982Y-126793866D02*
X80917506Y-126793866D01*
X80917506Y-126793866D02*
X80822268Y-126746247D01*
X80822268Y-126746247D02*
X80774649Y-126698628D01*
X80774649Y-126698628D02*
X80727030Y-126603390D01*
X79075839Y-72295057D02*
X79028220Y-72247438D01*
X79028220Y-72247438D02*
X78932982Y-72199819D01*
X78932982Y-72199819D02*
X78694887Y-72199819D01*
X78694887Y-72199819D02*
X78599649Y-72247438D01*
X78599649Y-72247438D02*
X78552030Y-72295057D01*
X78552030Y-72295057D02*
X78504411Y-72390295D01*
X78504411Y-72390295D02*
X78504411Y-72485533D01*
X78504411Y-72485533D02*
X78552030Y-72628390D01*
X78552030Y-72628390D02*
X79123458Y-73199819D01*
X79123458Y-73199819D02*
X78504411Y-73199819D01*
D11*
%TO.C,BT1*%
X159550000Y-104785000D02*
X159550000Y-110485000D01*
X165550000Y-104785000D02*
X159550000Y-104785000D01*
X165550000Y-104785000D02*
X165550000Y-110485000D01*
X159550000Y-110485000D02*
G75*
G02*
X159050000Y-111235000I-812500J0D01*
G01*
X162550000Y-133680671D02*
G75*
G02*
X159050000Y-111235000I-11J11495715D01*
G01*
X166050000Y-111235000D02*
G75*
G02*
X162550000Y-133680671I-3499989J-10949956D01*
G01*
X166050000Y-111235000D02*
G75*
G02*
X165550000Y-110485000I312500J750000D01*
G01*
%TD*%
M02*
